<?xml version="1.0" encoding="UTF-8"?>
<svg width="800" height="600" viewBox="0 0 800 600" fill="none" xmlns="http://www.w3.org/2000/svg" role="img" aria-labelledby="title2 desc2">
  <title id="title2">Tasks and verification illustration</title>
  <desc id="desc2">Abstract cards with checkmarks indicating task completion and verification</desc>
  <defs>
    <linearGradient id="g2" x1="0" y1="0" x2="1" y2="1">
      <stop offset="0" stop-color="#10B981"/>
      <stop offset="1" stop-color="#34D399"/>
    </linearGradient>
    <linearGradient id="bg2" x1="0" y1="0" x2="800" y2="600">
      <stop offset="0" stop-color="#EEF6FF"/>
      <stop offset="1" stop-color="#F0FFF8"/>
    </linearGradient>
  </defs>
  <rect width="800" height="600" fill="url(#bg2)"/>
  <circle cx="680" cy="120" r="90" fill="#CDE5FF" opacity="0.35"/>
  <circle cx="120" cy="520" r="110" fill="#CFF6E7" opacity="0.35"/>

  <!-- Task cards -->
  <g transform="translate(130,160)">
    <g>
      <rect x="0" y="0" width="540" height="80" rx="16" fill="#FFFFFF" stroke="#E6EEF9"/>
      <circle cx="36" cy="40" r="12" fill="#10B981"/>
      <path d="M28 42 L34 48 L46 34" stroke="#FFFFFF" stroke-width="4" stroke-linecap="round" stroke-linejoin="round"/>
      <rect x="64" y="28" width="180" height="12" rx="6" fill="#EAF2FF"/>
      <rect x="64" y="48" width="140" height="10" rx="5" fill="#F4F8FF"/>
    </g>
    <g transform="translate(0,100)">
      <rect x="0" y="0" width="540" height="80" rx="16" fill="#FFFFFF" stroke="#E6EEF9"/>
      <circle cx="36" cy="40" r="12" fill="#3B82F6"/>
      <path d="M28 42 L34 48 L46 34" stroke="#FFFFFF" stroke-width="4" stroke-linecap="round" stroke-linejoin="round"/>
      <rect x="64" y="28" width="200" height="12" rx="6" fill="#EAF2FF"/>
      <rect x="64" y="48" width="160" height="10" rx="5" fill="#F4F8FF"/>
    </g>
    <g transform="translate(0,200)">
      <rect x="0" y="0" width="540" height="80" rx="16" fill="#FFFFFF" stroke="#E6EEF9"/>
      <circle cx="36" cy="40" r="12" fill="#F59E0B"/>
      <path d="M28 42 L34 48 L46 34" stroke="#FFFFFF" stroke-width="4" stroke-linecap="round" stroke-linejoin="round"/>
      <rect x="64" y="28" width="220" height="12" rx="6" fill="#EAF2FF"/>
      <rect x="64" y="48" width="180" height="10" rx="5" fill="#F4F8FF"/>
    </g>
  </g>
</svg>
