<?xml version="1.0" encoding="UTF-8"?>
<svg width="800" height="520" viewBox="0 0 800 520" fill="none" xmlns="http://www.w3.org/2000/svg" role="img" aria-labelledby="title5 desc5">
  <title id="title5">Case manager dashboard illustration</title>
  <desc id="desc5">Abstract dashboard with charts and reports for case managers</desc>
  <defs>
    <linearGradient id="g5" x1="0" y1="0" x2="1" y2="1">
      <stop offset="0" stop-color="#10B981"/>
      <stop offset="1" stop-color="#3B82F6"/>
    </linearGradient>
    <linearGradient id="bg5" x1="0" y1="0" x2="800" y2="520">
      <stop offset="0" stop-color="#F0F6FF"/>
      <stop offset="1" stop-color="#EEFFF8"/>
    </linearGradient>
  </defs>
  <rect width="800" height="520" fill="url(#bg5)"/>
  <g transform="translate(110,70)">
    <rect x="0" y="0" width="580" height="360" rx="18" fill="#FFFFFF" stroke="#E6EEF9"/>
    <!-- Header -->
    <rect x="24" y="24" width="220" height="14" rx="7" fill="#EAF2FF"/>
    <!-- Graph -->
    <g transform="translate(24,70)">
      <rect x="0" y="0" width="360" height="160" rx="12" fill="#F9FBFF" stroke="#E6EEF9"/>
      <path d="M20 120 C80 80, 120 140, 180 100 C240 60, 280 90, 340 40" stroke="url(#g5)" stroke-width="6" fill="none" opacity="0.7"/>
      <rect x="20" y="130" width="70" height="10" rx="5" fill="#EAF2FF"/>
    </g>
    <!-- Report chips -->
    <g transform="translate(400,70)">
      <rect x="0" y="0" width="160" height="70" rx="12" fill="#FFFFFF" stroke="#E6EEF9"/>
      <circle cx="26" cy="35" r="10" fill="#10B981"/>
      <rect x="44" y="22" width="96" height="10" rx="5" fill="#DCEBFF"/>
      <rect x="44" y="40" width="80" height="8" rx="4" fill="#EEF5FF"/>
    </g>
    <g transform="translate(400,150)">
      <rect x="0" y="0" width="160" height="70" rx="12" fill="#FFFFFF" stroke="#E6EEF9"/>
      <circle cx="26" cy="35" r="10" fill="#3B82F6"/>
      <rect x="44" y="22" width="96" height="10" rx="5" fill="#DCEBFF"/>
      <rect x="44" y="40" width="80" height="8" rx="4" fill="#EEF5FF"/>
    </g>
    <g transform="translate(400,230)">
      <rect x="0" y="0" width="160" height="70" rx="12" fill="#FFFFFF" stroke="#E6EEF9"/>
      <circle cx="26" cy="35" r="10" fill="#F59E0B"/>
      <rect x="44" y="22" width="96" height="10" rx="5" fill="#FFE8C2"/>
      <rect x="44" y="40" width="80" height="8" rx="4" fill="#FFF3DB"/>
    </g>
  </g>
</svg>
