<?xml version="1.0" encoding="UTF-8"?>
<svg width="200" height="200" viewBox="0 0 200 200" fill="none" xmlns="http://www.w3.org/2000/svg">
  <!-- Background Elements -->
  <circle cx="100" cy="100" r="95" fill="url(#grad-bg)" opacity="0.05"/>
  <path d="M30,100 Q65,40 100,30 Q135,40 170,100 Q135,160 100,170 Q65,160 30,100 Z" fill="url(#grad-accent)" opacity="0.08"/>
  
  <!-- Main Circle with Gradient Border -->
  <circle cx="100" cy="100" r="70" fill="white" stroke="url(#grad-border)" stroke-width="3"/>
  
  <!-- Clock Face Elements -->
  <circle cx="100" cy="100" r="65" stroke="#E2ECFF" stroke-width="1" stroke-dasharray="1 3"/>
  <circle cx="100" cy="100" r="60" stroke="#E2ECFF" stroke-width="1" stroke-dasharray="1 5"/>
  
  <!-- Time Markers -->
  <line x1="100" y1="45" x2="100" y2="50" stroke="#3b82f6" stroke-width="2" stroke-linecap="round"/>
  <line x1="155" y1="100" x2="150" y2="100" stroke="#3b82f6" stroke-width="2" stroke-linecap="round"/>
  <line x1="100" y1="155" x2="100" y2="150" stroke="#3b82f6" stroke-width="2" stroke-linecap="round"/>
  <line x1="45" y1="100" x2="50" y2="100" stroke="#3b82f6" stroke-width="2" stroke-linecap="round"/>
  
  <!-- Clock Hands with Gradient -->
  <line x1="100" y1="100" x2="100" y2="55" stroke="url(#grad-hand1)" stroke-width="3" stroke-linecap="round"/>
  <line x1="100" y1="100" x2="135" y2="125" stroke="url(#grad-hand2)" stroke-width="3" stroke-linecap="round"/>
  
  <!-- Center Point with Glow -->
  <circle cx="100" cy="100" r="8" fill="white" stroke="#3b82f6" stroke-width="2"/>
  <circle cx="100" cy="100" r="4" fill="#3b82f6"/>
  
  <!-- Checkmark with Gradient -->
  <path d="M65 100 Q75,110 85,120 Q105,90 135,75" stroke="url(#grad-check)" stroke-width="5" stroke-linecap="round" stroke-linejoin="round"/>
  
  <!-- Outer Ring with Animated Gradient -->
  <circle cx="100" cy="100" r="85" stroke="url(#grad-outer)" stroke-width="2" stroke-dasharray="3 6">
    <animate attributeName="stroke-dashoffset" from="0" to="100" dur="20s" repeatCount="indefinite"/>
  </circle>
  
  <!-- Decorative Elements -->
  <circle cx="40" cy="40" r="15" fill="url(#grad-accent)" opacity="0.1"/>
  <circle cx="160" cy="160" r="20" fill="url(#grad-accent)" opacity="0.1"/>
  <circle cx="160" cy="40" r="10" fill="url(#grad-accent)" opacity="0.1"/>
  <circle cx="40" cy="160" r="12" fill="url(#grad-accent)" opacity="0.1"/>
  
  <!-- Gradient Definitions -->
  <defs>
    <linearGradient id="grad-border" x1="30" y1="30" x2="170" y2="170" gradientUnits="userSpaceOnUse">
      <stop offset="0" stop-color="#3b82f6"/>
      <stop offset="1" stop-color="#10b981"/>
    </linearGradient>
    
    <linearGradient id="grad-bg" x1="0" y1="0" x2="200" y2="200" gradientUnits="userSpaceOnUse">
      <stop offset="0" stop-color="#3b82f6"/>
      <stop offset="0.5" stop-color="#10b981"/>
      <stop offset="1" stop-color="#3b82f6"/>
    </linearGradient>
    
    <linearGradient id="grad-accent" x1="30" y1="30" x2="170" y2="170" gradientUnits="userSpaceOnUse">
      <stop offset="0" stop-color="#3b82f6"/>
      <stop offset="1" stop-color="#10b981"/>
    </linearGradient>
    
    <linearGradient id="grad-hand1" x1="100" y1="100" x2="100" y2="50" gradientUnits="userSpaceOnUse">
      <stop offset="0" stop-color="#3b82f6"/>
      <stop offset="1" stop-color="#60a5fa"/>
    </linearGradient>
    
    <linearGradient id="grad-hand2" x1="100" y1="100" x2="135" y2="125" gradientUnits="userSpaceOnUse">
      <stop offset="0" stop-color="#3b82f6"/>
      <stop offset="1" stop-color="#60a5fa"/>
    </linearGradient>
    
    <linearGradient id="grad-check" x1="65" y1="100" x2="135" y2="75" gradientUnits="userSpaceOnUse">
      <stop offset="0" stop-color="#10b981"/>
      <stop offset="1" stop-color="#34d399"/>
    </linearGradient>
    
    <linearGradient id="grad-outer" x1="15" y1="15" x2="185" y2="185" gradientUnits="userSpaceOnUse">
      <stop offset="0" stop-color="#3b82f6"/>
      <stop offset="0.5" stop-color="#10b981"/>
      <stop offset="1" stop-color="#3b82f6"/>
    </linearGradient>
  </defs>
</svg>
