<?xml version="1.0" encoding="UTF-8"?>
<svg width="900" height="600" viewBox="0 0 900 600" fill="none" xmlns="http://www.w3.org/2000/svg" role="img" aria-labelledby="title3 desc3">
  <title id="title3">Collaboration and impact illustration</title>
  <desc id="desc3">Abstract collaborative scene with connected nodes representing volunteers, nonprofits, and case managers</desc>
  <defs>
    <linearGradient id="g3a" x1="0" y1="0" x2="1" y2="1">
      <stop offset="0" stop-color="#3B82F6"/>
      <stop offset="1" stop-color="#10B981"/>
    </linearGradient>
    <linearGradient id="bg3" x1="0" y1="0" x2="900" y2="600">
      <stop offset="0" stop-color="#F0F6FF"/>
      <stop offset="1" stop-color="#EDFFF9"/>
    </linearGradient>
  </defs>
  <rect width="900" height="600" fill="url(#bg3)"/>

  <!-- Nodes -->
  <g transform="translate(140,140)">
    <circle cx="100" cy="200" r="38" fill="#3B82F6"/>
    <circle cx="360" cy="80" r="44" fill="#10B981"/>
    <circle cx="560" cy="260" r="40" fill="#2563EB"/>

    <!-- Connections -->
    <path d="M100 200 C220 140, 260 120, 360 80" stroke="url(#g3a)" stroke-width="6" opacity="0.25"/>
    <path d="M360 80 C450 140, 500 200, 560 260" stroke="url(#g3a)" stroke-width="6" opacity="0.25"/>
    <path d="M100 200 C240 260, 400 300, 560 260" stroke="url(#g3a)" stroke-width="6" opacity="0.25"/>

    <!-- Center card -->
    <g transform="translate(220,180)">
      <rect x="0" y="0" width="220" height="140" rx="18" fill="#FFFFFF" stroke="#E6EEF9"/>
      <rect x="20" y="20" width="140" height="12" rx="6" fill="#EAF2FF"/>
      <rect x="20" y="48" width="180" height="10" rx="5" fill="#F4F8FF"/>
      <rect x="20" y="70" width="120" height="10" rx="5" fill="#F4F8FF"/>
      <rect x="20" y="100" width="80" height="20" rx="10" fill="url(#g3a)"/>
    </g>
  </g>
</svg>
